# xmcd
#
# Track frame offsets:
#	183
#	10635
#	23608
#	35085
#	49658
#	63290
#	74788
#	85418
#	94983
#	109775
#	120140
#	139160
#	153088
#	166253
#	180685
#	193058
#
# Disc length: 2750 seconds
#
# Revision: 0
# Processed by: cddbd v1.4PL0 Copyright (c) Steve Scherf et al.
# Submitted via: EasyCDDAExtractor 4.6.9.1
#
DISCID=cf0abc10
DTITLE=Etta James - I'd Rather Go Blind
DYEAR=1992
DGENRE=R&B
TTITLE0=Tell Mama
TTITLE1=All I Could DO Was Cry
TTITLE2=I'd Rather Go Blind
TTITLE3=Sunday Kind Of Love
TTITLE4=I Just Want To Make Love To You
TTITLE5=Anything To Say You're Mine
TTITLE6=Tough Mary
TTITLE7=Waitin' For Charlie (To Come Home)
TTITLE8=Only Time Will Tell
TTITLE9=Girl (Boy) Of My Dreams
TTITLE10=Out On The Streets, Again
TTITLE11=Stormy Weather
TTITLE12=Trust In Me
TTITLE13=W.O.M.A.N
TTITLE14=Someting's Got A Hold On Me
TTITLE15=At Last
EXTD=
EXTT0=
EXTT1=
EXTT2=
EXTT3=
EXTT4=
EXTT5=
EXTT6=
EXTT7=
EXTT8=
EXTT9=
EXTT10=
EXTT11=
EXTT12=
EXTT13=
EXTT14=
EXTT15=
PLAYORDER=
